<svg xmlns="http://www.w3.org/2000/svg" viewBox="0 0 1440 260" preserveAspectRatio="xMidYMax slice" fill="none">
  <!-- 远景层 -->
  <g fill="#173a6e" opacity="0.45">
    <rect x="40" y="150" width="70" height="110"/>
    <rect x="150" y="120" width="56" height="140"/>
    <rect x="250" y="170" width="80" height="90"/>
    <rect x="380" y="100" width="60" height="160"/>
    <rect x="470" y="160" width="74" height="100"/>
    <rect x="600" y="130" width="58" height="130"/>
    <rect x="700" y="175" width="86" height="85"/>
    <rect x="840" y="110" width="62" height="150"/>
    <rect x="940" y="155" width="76" height="105"/>
    <rect x="1070" y="125" width="58" height="135"/>
    <rect x="1170" y="168" width="82" height="92"/>
    <rect x="1300" y="135" width="64" height="125"/>
  </g>
  <!-- 近景层 -->
  <g fill="#0f2c57" opacity="0.7">
    <rect x="0" y="190" width="90" height="70" rx="3"/>
    <rect x="110" y="160" width="70" height="100" rx="3"/>
    <polygon points="215,260 215,150 250,120 285,150 285,260"/>
    <rect x="300" y="180" width="84" height="80" rx="3"/>
    <rect x="410" y="140" width="64" height="120" rx="3"/>
    <rect x="500" y="195" width="92" height="65" rx="3"/>
    <rect x="615" y="165" width="70" height="95" rx="3"/>
    <rect x="710" y="135" width="60" height="125" rx="4"/>
    <rect x="795" y="185" width="88" height="75" rx="3"/>
    <rect x="905" y="155" width="66" height="105" rx="3"/>
    <polygon points="990,260 990,160 1030,128 1070,160 1070,260"/>
    <rect x="1090" y="180" width="86" height="80" rx="3"/>
    <rect x="1200" y="150" width="68" height="110" rx="3"/>
    <rect x="1290" y="195" width="94" height="65" rx="3"/>
    <rect x="1400" y="170" width="40" height="90" rx="3"/>
  </g>
  <!-- 窗户点缀 -->
  <g fill="#f4b740" opacity="0.55">
    <rect x="128" y="175" width="6" height="8"/><rect x="142" y="175" width="6" height="8"/>
    <rect x="128" y="195" width="6" height="8"/><rect x="142" y="195" width="6" height="8"/>
    <rect x="426" y="158" width="6" height="9"/><rect x="442" y="158" width="6" height="9"/>
    <rect x="426" y="180" width="6" height="9"/><rect x="442" y="180" width="6" height="9"/>
    <rect x="725" y="155" width="6" height="9"/><rect x="740" y="155" width="6" height="9"/>
    <rect x="725" y="178" width="6" height="9"/><rect x="740" y="178" width="6" height="9"/>
    <rect x="1218" y="168" width="6" height="9"/><rect x="1234" y="168" width="6" height="9"/>
    <rect x="1218" y="190" width="6" height="9"/><rect x="1234" y="190" width="6" height="9"/>
  </g>
</svg>
