<svg xmlns="http://www.w3.org/2000/svg" width="980" height="600" viewBox="0 0 980 600" font-family="PingFang SC, Microsoft YaHei, sans-serif"><defs><linearGradient id="sky" x1="0" y1="0" x2="1" y2="1"><stop offset="0" stop-color="#1b3b6f"/><stop offset="0.5" stop-color="#2a5298"/><stop offset="1" stop-color="#6dd5ed"/></linearGradient></defs><rect width="980" height="600" fill="url(#sky)"/><text x="20" y="34" fill="#fff" font-size="22" font-weight="800">🏙️ 环游都市 · 主题预览</text><rect x="16" y="48" width="528" height="544" rx="18" fill="#0f2a52"/><rect x="19" y="67" width="60" height="60" rx="7" fill="#eaf3ff"/><text x="49" y="95" font-size="18" text-anchor="middle">🏁</text><text x="49" y="113" font-size="9" text-anchor="middle" fill="#1f2a44">出发</text><circle cx="33" cy="113" r="9" fill="#3d7effcc"/><text x="33" y="117" font-size="11" text-anchor="middle">🚗</text><rect x="85" y="67" width="60" height="60" rx="7" fill="#ffffff"/><rect x="88" y="70" width="54" height="9" rx="3" fill="#16c79a"/><text x="90" y="95" font-size="10" font-weight="700" fill="#1f2a44">翡翠湾·1</text><circle cx="136" cy="89" r="5" fill="#3d7eff" stroke="#fff" stroke-width="1.5"/><text x="125" y="121" font-size="14">🏘️</text><rect x="151" y="67" width="60" height="60" rx="7" fill="#ffffff"/><rect x="154" y="70" width="54" height="9" rx="3" fill="#16c79a"/><text x="156" y="95" font-size="10" font-weight="700" fill="#1f2a44">翡翠湾·2</text><circle cx="202" cy="89" r="5" fill="#3d7eff" stroke="#fff" stroke-width="1.5"/><text x="191" y="121" font-size="14">🏠</text><rect x="217" y="67" width="60" height="60" rx="7" fill="#fff4ea"/><text x="247" y="95" font-size="18" text-anchor="middle">❓机</text><text x="247" y="113" font-size="9" text-anchor="middle" fill="#1f2a44">遇</text><rect x="283" y="67" width="60" height="60" rx="7" fill="#ffffff"/><rect x="286" y="70" width="54" height="9" rx="3" fill="#16c79a"/><text x="288" y="95" font-size="10" font-weight="700" fill="#1f2a44">翡翠湾·3</text><circle cx="334" cy="89" r="5" fill="#ff6f91" stroke="#fff" stroke-width="1.5"/><rect x="349" y="67" width="60" height="60" rx="7" fill="#ffffff"/><rect x="352" y="70" width="54" height="9" rx="3" fill="#f5a623"/><text x="354" y="95" font-size="10" font-weight="700" fill="#1f2a44">金沙滩·1</text><circle cx="363" cy="113" r="9" fill="#ff6f91cc"/><text x="363" y="117" font-size="11" text-anchor="middle">🎩</text><rect x="415" y="67" width="60" height="60" rx="7" fill="#fff4ea"/><text x="445" y="95" font-size="18" text-anchor="middle">🏦</text><text x="445" y="113" font-size="9" text-anchor="middle" fill="#1f2a44">税务</text><rect x="481" y="67" width="60" height="60" rx="7" fill="#eaf3ff"/><text x="511" y="95" font-size="18" text-anchor="middle">🚔</text><text x="511" y="113" font-size="9" text-anchor="middle" fill="#1f2a44">拘留所</text><rect x="481" y="133" width="60" height="60" rx="7" fill="#ffffff"/><rect x="484" y="136" width="54" height="9" rx="3" fill="#f5a623"/><text x="486" y="161" font-size="10" font-weight="700" fill="#1f2a44">金沙滩·2</text><circle cx="532" cy="155" r="5" fill="#16c79a" stroke="#fff" stroke-width="1.5"/><rect x="481" y="199" width="60" height="60" rx="7" fill="#ffffff"/><rect x="484" y="202" width="54" height="9" rx="3" fill="#f5a623"/><text x="486" y="227" font-size="10" font-weight="700" fill="#1f2a44">金沙滩·3</text><rect x="481" y="265" width="60" height="60" rx="7" fill="#fff4ea"/><text x="511" y="293" font-size="18" text-anchor="middle">🃏</text><text x="511" y="311" font-size="9" text-anchor="middle" fill="#1f2a44">命运</text><rect x="481" y="331" width="60" height="60" rx="7" fill="#ffffff"/><rect x="484" y="334" width="54" height="9" rx="3" fill="#ff6f91"/><text x="486" y="359" font-size="10" font-weight="700" fill="#1f2a44">霓虹巷·1</text><circle cx="532" cy="353" r="5" fill="#3d7eff" stroke="#fff" stroke-width="1.5"/><text x="521" y="385" font-size="14">🏙️</text><circle cx="495" cy="377" r="9" fill="#16c79acc"/><text x="495" y="381" font-size="11" text-anchor="middle">🐕</text><rect x="481" y="397" width="60" height="60" rx="7" fill="#ffffff"/><rect x="484" y="400" width="54" height="9" rx="3" fill="#ff6f91"/><text x="486" y="425" font-size="10" font-weight="700" fill="#1f2a44">霓虹巷·2</text><rect x="481" y="463" width="60" height="60" rx="7" fill="#ffffff"/><rect x="484" y="466" width="54" height="9" rx="3" fill="#ff6f91"/><text x="486" y="491" font-size="10" font-weight="700" fill="#1f2a44">霓虹巷·3</text><rect x="481" y="529" width="60" height="60" rx="7" fill="#eaf3ff"/><text x="511" y="557" font-size="18" text-anchor="middle">🌳</text><text x="511" y="575" font-size="9" text-anchor="middle" fill="#1f2a44">公园</text><rect x="415" y="529" width="60" height="60" rx="7" fill="#ffffff"/><rect x="418" y="532" width="54" height="9" rx="3" fill="#9b6dff"/><text x="420" y="557" font-size="10" font-weight="700" fill="#1f2a44">紫藤台·1</text><rect x="349" y="529" width="60" height="60" rx="7" fill="#ffffff"/><rect x="352" y="532" width="54" height="9" rx="3" fill="#9b6dff"/><text x="354" y="557" font-size="10" font-weight="700" fill="#1f2a44">紫藤台·2</text><circle cx="400" cy="551" r="5" fill="#f5a623" stroke="#fff" stroke-width="1.5"/><text x="389" y="583" font-size="14">🏢</text><rect x="283" y="529" width="60" height="60" rx="7" fill="#fff4ea"/><text x="313" y="557" font-size="18" text-anchor="middle">❓机</text><text x="313" y="575" font-size="9" text-anchor="middle" fill="#1f2a44">遇</text><rect x="217" y="529" width="60" height="60" rx="7" fill="#ffffff"/><rect x="220" y="532" width="54" height="9" rx="3" fill="#9b6dff"/><text x="222" y="557" font-size="10" font-weight="700" fill="#1f2a44">紫藤台·3</text><circle cx="231" cy="575" r="9" fill="#f5a623cc"/><text x="231" y="579" font-size="11" text-anchor="middle">🚀</text><rect x="151" y="529" width="60" height="60" rx="7" fill="#ffffff"/><rect x="154" y="532" width="54" height="9" rx="3" fill="#3d7eff"/><text x="156" y="557" font-size="10" font-weight="700" fill="#1f2a44">蓝湾港·1</text><circle cx="202" cy="551" r="5" fill="#ff6f91" stroke="#fff" stroke-width="1.5"/><rect x="85" y="529" width="60" height="60" rx="7" fill="#ffffff"/><rect x="88" y="532" width="54" height="9" rx="3" fill="#3d7eff"/><text x="90" y="557" font-size="10" font-weight="700" fill="#1f2a44">蓝湾港·2</text><rect x="19" y="529" width="60" height="60" rx="7" fill="#eaf3ff"/><text x="49" y="557" font-size="18" text-anchor="middle">🚨</text><text x="49" y="575" font-size="9" text-anchor="middle" fill="#1f2a44">入狱</text><rect x="19" y="463" width="60" height="60" rx="7" fill="#ffffff"/><rect x="22" y="466" width="54" height="9" rx="3" fill="#3d7eff"/><text x="24" y="491" font-size="10" font-weight="700" fill="#1f2a44">蓝湾港·3</text><rect x="19" y="397" width="60" height="60" rx="7" fill="#fff4ea"/><text x="49" y="425" font-size="18" text-anchor="middle">🃏</text><text x="49" y="443" font-size="9" text-anchor="middle" fill="#1f2a44">命运</text><rect x="19" y="331" width="60" height="60" rx="7" fill="#ffffff"/><rect x="22" y="334" width="54" height="9" rx="3" fill="#ff5d5d"/><text x="24" y="359" font-size="10" font-weight="700" fill="#1f2a44">朝阳门·1</text><circle cx="70" cy="353" r="5" fill="#16c79a" stroke="#fff" stroke-width="1.5"/><rect x="19" y="265" width="60" height="60" rx="7" fill="#ffffff"/><rect x="22" y="268" width="54" height="9" rx="3" fill="#ff5d5d"/><text x="24" y="293" font-size="10" font-weight="700" fill="#1f2a44">朝阳门·2</text><rect x="19" y="199" width="60" height="60" rx="7" fill="#ffffff"/><rect x="22" y="202" width="54" height="9" rx="3" fill="#ff5d5d"/><text x="24" y="227" font-size="10" font-weight="700" fill="#1f2a44">朝阳门·3</text><rect x="19" y="133" width="60" height="60" rx="7" fill="#fff4ea"/><text x="49" y="161" font-size="18" text-anchor="middle">🏦</text><text x="49" y="179" font-size="9" text-anchor="middle" fill="#1f2a44">税务</text><text x="280" y="298" font-size="56" text-anchor="middle">🏙️🌆</text><text x="280" y="342" font-size="20" font-weight="800" fill="#fff" text-anchor="middle">轮到 你 · 决策中</text><rect x="220" y="358" width="50" height="50" rx="12" fill="#fff"/><text x="245" y="396" font-size="34" text-anchor="middle">⚃</text><rect x="290" y="358" width="50" height="50" rx="12" fill="#fff"/><text x="315" y="396" font-size="34" text-anchor="middle">⚁</text><rect x="242" y="418" width="76" height="26" rx="13" fill="rgba(0,0,0,.3)"/><text x="280" y="436" font-size="15" font-weight="800" fill="#fff" text-anchor="middle">⏱ 18s</text><text x="580" y="74" fill="#fff" font-size="15" font-weight="700">玩家</text><rect x="580" y="86" width="340" height="38" rx="12" fill="#fff" stroke="#f4b740" stroke-width="2"/><circle cx="602" cy="105" r="13" fill="#3d7eff"/><text x="602" y="110" font-size="14" text-anchor="middle">🚗</text><text x="624" y="110" font-size="14" font-weight="600" fill="#1f2a44">你 🏆</text><text x="910" y="110" font-size="14" font-weight="800" fill="#f4b740" text-anchor="end">🪙2240</text><rect x="580" y="132" width="340" height="38" rx="12" fill="#fff" /><circle cx="602" cy="151" r="13" fill="#ff6f91"/><text x="602" y="156" font-size="14" text-anchor="middle">🎩</text><text x="624" y="156" font-size="14" font-weight="600" fill="#1f2a44">小明</text><text x="910" y="156" font-size="14" font-weight="800" fill="#f4b740" text-anchor="end">🪙1180</text><rect x="580" y="178" width="340" height="38" rx="12" fill="#fff" /><circle cx="602" cy="197" r="13" fill="#16c79a"/><text x="602" y="202" font-size="14" text-anchor="middle">🐕</text><text x="624" y="202" font-size="14" font-weight="600" fill="#1f2a44">阿强</text><text x="910" y="202" font-size="14" font-weight="800" fill="#f4b740" text-anchor="end">🪙760</text><rect x="580" y="224" width="340" height="38" rx="12" fill="#fff" /><circle cx="602" cy="243" r="13" fill="#f5a623"/><text x="602" y="248" font-size="14" text-anchor="middle">🚀</text><text x="624" y="248" font-size="14" font-weight="600" fill="#1f2a44">莉莉</text><text x="910" y="248" font-size="14" font-weight="800" fill="#f4b740" text-anchor="end">🪙430</text><rect x="580" y="284" width="340" height="300" rx="16" fill="#fbfcff"/><text x="750" y="314" font-size="17" font-weight="800" fill="#1f2a44" text-anchor="middle">🏁 对局结束 · 净资产排名</text><rect x="594" y="330" width="312" height="28" rx="9" fill="#ffe6a8"/><text x="604" y="349" font-size="13" font-weight="800" fill="#1f2a44">🥇 你 🪙2240</text><rect x="594" y="364" width="312" height="28" rx="9" fill="#f3f7fc"/><text x="604" y="383" font-size="13" font-weight="600" fill="#1f2a44">🥈 小明 🪙1180</text><rect x="594" y="398" width="312" height="28" rx="9" fill="#f3f7fc"/><text x="604" y="417" font-size="13" font-weight="600" fill="#1f2a44">🥉 阿强 🪙760</text></svg>